<svg xmlns="http://www.w3.org/2000/svg" viewBox="0 0 1793 512" role="img" aria-label="MigrAI" style="color:#0f172a">
  <defs>
    <linearGradient id="mg-body" x1="150" y1="120" x2="150" y2="392" gradientUnits="userSpaceOnUse">
      <stop offset="0" stop-color="#3575ff"/>
      <stop offset="1" stop-color="#0b5fff"/>
    </linearGradient>
    <linearGradient id="mg-arrow" x1="430" y1="120" x2="430" y2="392" gradientUnits="userSpaceOnUse">
      <stop offset="0" stop-color="#8b5cf6"/>
      <stop offset="1" stop-color="#7c3aed"/>
    </linearGradient>
    <style>.word{fill:currentColor}.ai{fill:#7c3aed}</style>
  </defs>
  <g>
    <path fill="url(#mg-body)" d="M40 120 H132 L226 262 L320 120 H412 V392 H320 V244 L226 386 L132 244 V392 H40 Z"/>
    <path fill="url(#mg-arrow)" d="M372 120 H452 L500 256 L452 392 H372 L420 256 Z"/>
  </g>
  <g>
    <path class="word" d="M611.4 392.0V120.0H684.8L736.4 260.4Q739.2 268.2 742.5 280.6Q745.9 292.9 749.5 307.1Q753.0 321.4 756.2 335.0Q759.4 348.6 761.6 359.0H751.8Q754.0 348.7 757.1 335.3Q760.3 321.9 763.9 307.6Q767.5 293.2 770.8 280.8Q774.2 268.4 776.8 260.4L827.9 120.0H901.5V392.0H852.9V254.7Q852.9 246.0 853.1 233.5Q853.3 221.1 853.6 206.9Q854.0 192.7 854.4 178.1Q854.7 163.6 854.7 150.5H858.2Q854.5 164.9 850.2 180.0Q846.0 195.0 841.8 209.2Q837.6 223.3 833.8 235.2Q830.1 247.1 827.3 254.7L777.1 392.0H735.7L684.8 254.7Q682.0 247.1 678.3 235.5Q674.5 223.9 670.3 209.8Q666.0 195.8 661.7 180.5Q657.4 165.3 653.2 150.5H657.2Q657.4 162.7 657.8 177.0Q658.1 191.4 658.4 205.8Q658.7 220.2 658.9 232.9Q659.2 245.6 659.2 254.7V392.0Z"/>
    <path class="word" d="M951.8 392.0V187.9H999.2V392.0ZM975.5 159.1Q964.2 159.1 956.1 151.4Q948.0 143.7 948.0 133.1Q948.0 122.2 956.1 114.6Q964.2 107.0 975.5 107.0Q987.0 107.0 995.1 114.6Q1003.3 122.2 1003.3 133.0Q1003.3 143.7 995.1 151.4Q987.0 159.1 975.5 159.1Z"/>
    <path class="word" d="M1135.4 472.7Q1110.9 472.7 1092.8 466.5Q1074.6 460.3 1063.0 449.6Q1051.4 438.9 1046.3 425.4L1086.5 411.0Q1089.7 416.6 1095.5 422.7Q1101.2 428.7 1110.8 432.6Q1120.4 436.5 1135.2 436.5Q1157.3 436.5 1170.6 426.2Q1183.9 415.9 1183.9 394.0V355.5H1179.9Q1176.5 362.8 1169.7 370.6Q1162.9 378.3 1151.5 383.6Q1140.1 388.9 1122.4 388.9Q1099.1 388.9 1080.0 377.9Q1060.9 366.8 1049.7 344.7Q1038.4 322.6 1038.4 289.4Q1038.4 255.8 1049.8 232.6Q1061.1 209.4 1080.2 197.4Q1099.2 185.4 1122.8 185.4Q1140.9 185.4 1152.5 191.4Q1164.2 197.4 1171.2 205.9Q1178.1 214.4 1181.7 221.7H1184.3V187.9H1230.9V392.5Q1230.9 419.7 1218.4 437.5Q1206.0 455.3 1184.5 464.0Q1162.9 472.7 1135.4 472.7ZM1135.7 351.5Q1151.3 351.5 1162.0 344.1Q1172.8 336.7 1178.5 322.6Q1184.1 308.6 1184.1 289.0Q1184.1 269.7 1178.6 255.2Q1173.0 240.7 1162.2 232.5Q1151.4 224.4 1135.7 224.4Q1119.7 224.4 1108.8 232.9Q1098.0 241.4 1092.5 255.9Q1087.0 270.4 1087.0 289.0Q1087.0 307.8 1092.6 321.9Q1098.1 336.0 1109.0 343.7Q1119.9 351.5 1135.7 351.5Z"/>
    <path class="word" d="M1279.0 392.0V187.9H1325.0V222.0H1327.2Q1332.7 204.3 1346.4 194.8Q1360.0 185.2 1377.6 185.2Q1381.6 185.2 1386.5 185.5Q1391.4 185.9 1394.9 186.4V230.1Q1392.0 229.2 1385.4 228.4Q1378.8 227.7 1372.5 227.7Q1359.3 227.7 1348.8 233.4Q1338.3 239.0 1332.4 249.0Q1326.5 258.9 1326.5 271.9V392.0Z"/>
    <path class="ai" d="M1402.4 392.0 1497.3 120.0H1559.2L1656.3 392.0H1602.8L1554.4 250.7Q1547.3 228.8 1539.6 201.1Q1532.0 173.5 1522.7 138.3H1532.9Q1523.8 173.9 1516.4 201.7Q1509.0 229.5 1502.4 250.7L1455.7 392.0ZM1457.7 324.6V285.4H1601.0V324.6Z"/>
    <path class="ai" d="M1737.6 120.0V392.0H1688.9V120.0Z"/>
  </g>
</svg>
